<svg xmlns="http://www.w3.org/2000/svg" viewBox="0 0 40 24" width="40" height="24">
  <defs>
    <linearGradient id="g" x1="0%" y1="0%" x2="100%" y2="100%">
      <stop offset="0%" style="stop-color:#a78bfa" />
      <stop offset="100%" style="stop-color:#7c3aed" />
    </linearGradient>
  </defs>
  <path d="M4 12 C4 6 10 4 14 4 C18 4 20 8 22 12 C24 16 26 20 30 20 C34 20 36 16 36 12 C36 16 34 20 30 20 C26 20 24 16 22 12 C20 8 18 4 14 4 C10 4 4 8 4 12 C4 16 10 20 14 20 C18 20 20 16 22 12" stroke="url(#g)" stroke-width="2.5" fill="none" stroke-linecap="round"/>
</svg>
